<?xml version="1.0" encoding="UTF-8" standalone="no"?>
<svg
   xmlns:dc="http://purl.org/dc/elements/1.1/"
   xmlns:cc="http://creativecommons.org/ns#"
   xmlns:rdf="http://www.w3.org/1999/02/22-rdf-syntax-ns#"
   xmlns:svg="http://www.w3.org/2000/svg"
   xmlns="http://www.w3.org/2000/svg"
   version="1.1"
   id="svg3357"
   viewBox="0 0 511.99999 511.99999"
   height="512"
   width="512">
  <defs
     id="defs3359" />
  <metadata
     id="metadata3362">
    <rdf:RDF>
      <cc:Work
         rdf:about="">
        <dc:format>image/svg+xml</dc:format>
        <dc:type
           rdf:resource="http://purl.org/dc/dcmitype/StillImage" />
        <dc:title></dc:title>
      </cc:Work>
    </rdf:RDF>
  </metadata>
  <g
     style="display:inline"
     id="layer2">
    <g
       id="g4550">
      <circle
         style="opacity:1;fill:#4caf50;fill-opacity:1;stroke:none;stroke-opacity:1"
         id="path3451"
         cx="256"
         cy="256"
         r="234.5" />
      <g
         style="display:inline"
         id="g5223"
         transform="matrix(0.52942582,0,0,-0.52638478,-10.527623,516.87967)">
        <g
           id="g5225"
           transform="translate(421.2144,475.5059)">
          <path
             d="m 0,0 c -11.131,-58.73 -62.734,-103.144 -124.712,-103.144 -70.098,0 -126.932,56.834 -126.932,126.931 0,70.109 56.834,126.931 126.932,126.931 41.773,0 78.836,-20.18 101.979,-51.318 l 37.446,0 c -26.861,49.422 -79.232,82.964 -139.425,82.964 -87.575,0 -158.565,-71.002 -158.565,-158.577 0,-87.575 70.99,-158.564 158.565,-158.564 79.493,0 145.326,58.482 156.804,134.777 L 0,0 Z"
             style="fill:#ffffff;fill-opacity:1;fill-rule:nonzero;stroke:none"
             id="path5227" />
        </g>
        <g
           id="g5229"
           transform="translate(319.0972,475.5049)">
          <path
             d="m 0,0 90.754,-33.405 34.591,0 8.864,33.406 L 0,0 Z"
             style="fill:#ffffff;fill-opacity:1;fill-rule:nonzero;stroke:none"
             id="path5231" />
        </g>
        <g
           id="g5233"
           transform="translate(409.8516,442.0996)">
          <path
             d="m 0,0 64.329,0 0,33.405 L 43.455,33.406 0,0 Z"
             style="fill:#ffffff;fill-opacity:1;fill-rule:nonzero;stroke:none"
             id="path5235" />
        </g>
        <g
           id="g5237"
           transform="translate(474.1807,431.6611)">
          <path
             d="M 0,0 0,56.137 28.753,27.385 0,0 Z"
             style="fill:#ffffff;fill-opacity:1;fill-rule:nonzero;stroke:none"
             id="path5239" />
        </g>
        <g
           id="g5241"
           transform="translate(508.7314,341.5625)">
          <path
             d="m 0,0 c 3.624,0.144 11.932,14.125 13.939,16.824 6.716,9.027 12.695,18.537 18.309,28.28 2.921,5.069 5.723,10.205 8.423,15.394 2.481,4.77 3.822,9.753 6.799,14.303 5.393,8.244 4.823,16.181 -3.938,22.137 -8.062,5.481 -31.806,15.842 -22.047,-3.669 0,0 8.463,-16.927 -21.484,-82.03 C 0.001,11.239 -7.141,-0.139 0,0"
             style="fill:#ffffff;fill-opacity:1;fill-rule:nonzero;stroke:none"
             id="path5243" />
        </g>
        <path
           transform="translate(572.876,366.5635)"
           d="m 0,0 c -1.731,32.51 1.356,65.343 1.083,97.999 -0.022,2.695 -0.163,5.645 -1.961,7.652 -2.29,2.558 -6.3,2.521 -9.643,1.745 -11.238,-2.611 -21.703,-11.87 -33.857,-8.908 -4.189,1.021 -8.086,3.779 -9.786,7.741 -1.887,4.396 -0.839,9.61 1.57,13.743 5.173,8.874 14.119,14.935 21.293,22.071 5.534,5.505 10.762,11.319 15.651,17.405 3.051,3.8 12.201,10.989 9.667,16.626 -0.443,0.984 -1.209,1.78 -1.997,2.517 -7.789,7.271 -17.133,9.486 -26.995,12.368 -4.48,1.309 -9.038,3.6 -11.224,7.724 -2.799,5.277 -0.834,11.907 2.495,16.867 10.511,15.665 23.351,30.006 32.61,46.505 4.622,8.234 7.665,17.882 6.252,27.39 -0.467,3.137 -2.422,9.092 0.515,11.537 1.472,1.225 3.634,1.033 5.507,0.637 7.673,-1.623 14.826,-5.618 20.234,-11.297 12.414,-13.038 -4.076,-25.219 -11.763,-35.413 -9.405,-12.472 -18.81,-24.945 -28.215,-37.418 -1.414,-1.874 -2.907,-4.12 -2.293,-6.386 0.433,-1.604 1.824,-2.739 3.148,-3.745 5.29,-4.019 10.77,-7.788 16.415,-11.291 2.03,-1.259 4.254,-2.528 6.637,-2.358 2.665,0.19 4.845,2.126 6.701,4.047 13.575,14.052 21.856,33.079 23.331,52.526 0.187,2.462 0.349,5.141 1.983,6.992 4.476,5.067 12.492,-0.701 16.369,-3.684 4.711,-3.624 9.233,-7.86 11.482,-13.362 3.507,-8.582 -1.043,-15.266 -6.458,-21.59 -25.259,-29.503 -50.533,-59.102 -76.776,-87.738 -0.301,-0.328 -0.619,-0.698 -0.626,-1.142 -0.009,-0.488 0.36,-0.896 0.74,-1.2 2.753,-2.209 6.717,-1.707 10.192,-1.091 7.195,1.276 46.752,2.179 45.392,13.525 -0.124,1.039 -0.727,1.95 -1.313,2.818 -3.559,5.27 -8.017,10.67 -10.746,16.289 4.207,-1.211 9.156,-0.716 13.102,-2.689 17.025,-5.6 35.528,-22.45 37.612,-41.061 0.973,-8.686 -7.349,-22.873 -17.575,-16.092 -4.828,3.203 -5.53,9.858 -7.56,14.813 -4.607,11.257 -25.4,10.822 -29.627,-0.959 -0.625,-1.741 -0.472,-3.651 -0.312,-5.494 3.611,-41.506 2.736,-82.198 2.736,-123.743 -0.392,-7.158 -1.203,-15.032 -6.409,-19.959 -1.603,-1.518 -3.669,-2.69 -5.876,-2.69 -5.796,0 -8.449,7.139 -9.29,12.874 C 1.202,-16.626 0.443,-8.323 0,0"
           style="display:inline;fill:#ffffff;fill-opacity:1;fill-rule:nonzero;stroke:none"
           id="path5245" />
        <g
           id="g5247"
           transform="translate(608.458,462.0264)">
          <path
             d="m 0,0 c 5.097,-6.109 6.512,-15.81 9.341,-23.131 3.471,-8.981 3.287,-20.805 8.264,-28.792 5.307,-8.512 16.059,-7.647 20.463,1.291 C 48.936,-28.577 19.113,-3.484 -0.129,0.152 L 0,0 Z"
             style="fill:#ffffff;fill-opacity:1;fill-rule:nonzero;stroke:none"
             id="path5249" />
        </g>
        <g
           id="g5251"
           transform="translate(660.1826,501.7358)">
          <path
             d="m 0,0 c 6.351,-5.136 12.091,-11.785 17.983,-17.872 5.082,-5.251 22.788,-38.371 33.148,-29.069 1.728,1.553 2.444,3.937 2.789,6.236 C 58.311,-11.42 22.927,-0.787 0,0"
             style="fill:#ffffff;fill-opacity:1;fill-rule:nonzero;stroke:none"
             id="path5253" />
        </g>
        <g
           id="g5255"
           transform="translate(770.6582,457.5176)">
          <path
             d="m 0,0 c 0.217,0.53 0.53,1.026 0.909,1.421 11.023,11.46 22.69,22.557 32.305,35.261 1.49,1.967 2.969,4.038 3.547,6.437 1.462,6.066 -4.171,14.96 1.427,19.747 3.579,3.062 9.036,1.032 12.63,-0.815 C 58.445,58.132 69.814,45.758 63.049,36.803 56.858,28.609 44.419,21.516 36.018,15.678 25.92,8.662 15.348,2.309 4.269,-3.035 3.149,-3.575 1.809,-4.106 0.72,-3.507 -0.47,-2.852 -0.538,-1.321 0,0"
             style="fill:#ffffff;fill-opacity:1;fill-rule:nonzero;stroke:none"
             id="path5257" />
        </g>
        <g
           id="g5259"
           transform="translate(654.6064,403.584)">
          <path
             d="m 0,0 c -5.45,0.769 -10.226,0.35 -11.159,-5.003 -0.635,-3.64 1.25,-7.222 3.334,-10.273 4.26,-6.239 14.555,-19.864 23.669,-16.993 2.309,0.728 4.078,2.555 5.718,4.335 18.919,20.524 36.054,42.677 53.879,64.143 2.346,2.824 6.377,6.184 6.305,9.79 C 79.078,45.843 77.148,44.6 75.013,42.966 55.972,28.4 39.384,6.074 16.11,-1.904 12.666,-3.083 5.933,-0.838 0,0"
             style="fill:#ffffff;fill-opacity:1;fill-rule:nonzero;stroke:none"
             id="path5261" />
        </g>
        <g
           id="g5263"
           transform="translate(736.582,364.5723)">
          <path
             d="M 0,0 C 1.226,0.966 2.251,2.158 2.974,3.577 4.529,6.629 4.488,10.215 4.412,13.64 3.421,58.212 2.43,102.785 1.438,147.357 c -0.107,4.847 -0.513,10.338 -4.271,13.401 -3.715,3.028 -9.106,2.372 -13.83,1.556 l -52.289,-9.037 c -3.634,-0.628 -7.406,-1.25 -10.965,-0.284 -4.326,1.174 -7.679,4.507 -10.816,7.709 -4.607,4.702 -9.495,10.009 -9.88,16.581 -0.156,2.646 0.926,5.815 3.512,6.394 2.85,0.638 5.132,-2.162 7.243,-4.18 7.613,-7.278 19.667,-6.226 30.086,-4.693 28.714,4.226 57.429,8.452 86.145,12.678 2.842,0.419 5.951,0.982 7.782,3.195 1.255,1.519 1.664,3.545 2.032,5.48 1.117,5.878 2.233,11.757 3.349,17.635 0.275,1.441 0.536,2.994 -0.077,4.327 -1.32,2.87 -5.388,2.724 -8.488,2.12 -19.33,-3.761 -38.659,-7.523 -57.99,-11.284 -6.673,-1.299 -13.833,-2.552 -20.067,0.159 -7.79,3.386 -11.838,11.898 -14.807,19.857 -0.571,1.531 -1.122,3.266 -0.434,4.749 1.692,3.651 7.103,1.198 10.49,-0.976 8.435,-5.413 19.159,-5.902 29.081,-4.484 9.922,1.419 19.546,4.553 29.49,5.799 6.952,0.872 14.031,0.817 20.872,2.324 6.841,1.507 13.677,4.888 17.298,10.885 3.621,5.996 2.829,14.913 -3.011,18.78 -4.39,2.906 -10.128,2.361 -15.345,1.658 -23.337,-3.146 -46.543,-7.258 -69.541,-12.322 -2.189,-0.482 -4.51,-0.967 -6.629,-0.238 -1.603,0.552 -2.897,1.738 -4.098,2.935 -3.367,3.357 -6.403,7.045 -9.05,10.995 -2.254,3.366 -4.017,8.41 -0.911,11.01 1.974,1.653 4.879,1.283 7.419,0.871 32.385,-5.265 66.031,-2.6 97.183,7.699 4.53,1.497 9.182,3.177 13.935,2.765 5.61,-0.486 10.586,-3.849 14.603,-7.795 3.997,-3.927 7.469,-8.964 7.442,-14.568 -0.018,-3.801 -1.638,-7.383 -3.148,-10.871 -8.19,-18.919 -13.994,-38.87 -17.229,-59.231 -0.321,-2.025 -0.534,-4.354 0.836,-5.879 1.122,-1.25 2.953,-1.53 4.63,-1.62 10.485,-0.564 20.657,3.228 31.032,4.84 10.375,1.612 22.426,0.38 29.027,-7.785 1.738,-2.15 3.023,-4.832 2.822,-7.589 -0.302,-4.123 -3.906,-7.394 -7.842,-8.657 -3.936,-1.264 -8.179,-0.948 -12.305,-0.684 -27.102,1.73 -54.379,0.591 -81.249,-3.345 -2.25,-0.329 -4.934,-1.04 -5.572,-3.223 -0.981,-3.36 4.362,-7.579 5.804,-10.418 2.212,-4.352 2.784,-9.417 3.024,-14.222 0.488,-9.739 -1.335,-19.375 -1.937,-29.061 C 24.286,103.128 21.177,93.37 26.17,86.165 32.557,76.951 43.445,71.473 51.961,64.48 62.601,55.745 73.447,47.235 84.262,38.701 93.195,31.652 102.128,24.604 111.061,17.554 115.936,13.706 132.336,5.033 132.336,-1.869 132.185,-3.692 130.592,-5.135 128.85,-5.69 122.984,-7.56 115.695,-5.949 109.637,-6.288 101.354,-6.753 92.804,-6.799 85.188,-3.025 76.351,1.354 71.095,9.807 65.047,17.147 57.704,26.059 50.102,34.782 42.658,43.614 40.644,46.005 24.553,68.573 24.288,55.812 23.941,39.094 25.505,22.38 25.262,5.654 c -0.199,-13.614 0.84,-33.341 -8.914,-44.142 -1.701,-1.884 -4.019,-3.492 -6.554,-3.346 -5.641,0.329 -11.138,10 -14.505,13.944 -6.275,7.351 -12.458,14.782 -18.685,22.171 -1.056,1.253 -2.175,2.688 -2.061,4.322 0.418,6.005 12.251,-1.533 14.736,-1.687 C -6.945,-3.318 -2.91,-2.296 0,0"
             style="fill:#ffffff;fill-opacity:1;fill-rule:nonzero;stroke:none"
             id="path5265" />
        </g>
      </g>
    </g>
  </g>
</svg>
